<svg xmlns="http://www.w3.org/2000/svg" width="116.375" height="74.22" viewBox="0 0 116.375 74.22">
  <defs>
    <style>
      .cls-1 {
        fill-rule: evenodd;
      }
    </style>
  </defs>
  <path id="形状_1" data-name="形状 1" class="cls-1" d="M951.02,5971.7h-2.066c-0.1-.02-0.2-0.05-0.3-0.06-0.685-.05-1.375-0.05-2.054-0.14-1.605-.2-3.218-0.38-4.8-0.69a43.5,43.5,0,0,1-11.594-4.16,55.1,55.1,0,0,1-22.7-22.48,44.939,44.939,0,0,1-5.635-20.52,21.77,21.77,0,0,1,.66-5.94,25.838,25.838,0,0,1,8.418-13.26,28.287,28.287,0,0,1,7.352-4.56,29.82,29.82,0,0,1,10.182-2.36,43.767,43.767,0,0,1,6.868.16c1.829,0.18,3.663.32,5.482,0.57,2.507,0.35,5.012.72,7.5,1.19,3.112,0.58,6.22,1.2,9.3,1.93,4.145,0.98,8.273,2.04,12.39,3.14,4.974,1.32,9.894,2.84,14.782,4.45,6.483,2.14,12.914,4.42,19.164,7.18a32.632,32.632,0,0,1,7.72,4.45,19.481,19.481,0,0,1,4.97,5.83,12.936,12.936,0,0,1,1.59,5.53,11.735,11.735,0,0,1-.41,3.58,19.371,19.371,0,0,1-3.11,6.41,43.355,43.355,0,0,1-8.28,8.51,93.326,93.326,0,0,1-9.341,6.58,99.814,99.814,0,0,1-23.214,10.69,85.244,85.244,0,0,1-16.49,3.51c-1.943.2-3.9,0.27-5.851,0.4C951.369,5971.65,951.2,5971.68,951.02,5971.7Zm32.088-37.27a8.247,8.247,0,1,0-7.453,8.34A8.235,8.235,0,0,0,983.108,5934.43Zm-48.633.12a8.246,8.246,0,1,0,8.267-8.23A8.229,8.229,0,0,0,934.475,5934.55Zm64.935,4c-0.05.02-.141,0.07-0.233,0.11a12.447,12.447,0,0,1-7.129,1.17,3.416,3.416,0,0,1-2.388-1.27,4.643,4.643,0,0,1-.82-2.39,0.586,0.586,0,0,1,.155-0.35,20.22,20.22,0,0,0,2.182-3.45,12.46,12.46,0,0,0,1.523-7.06,5.162,5.162,0,0,0-.848-2.42,2.2,2.2,0,0,0-3.411-.46,4.617,4.617,0,0,0-1.415,2.34,22.7,22.7,0,0,0-.743,4.71c-0.1,1.67-.141,3.35-0.132,5.02a1.988,1.988,0,0,1-.583,1.6c-0.054.05-.1,0.11-0.151,0.16-0.565.5-1.131,1.01-1.722,1.53,0.3,0.5.62,1.03,0.979,1.62,0.579-.41,1.122-0.79,1.671-1.18,0.019,0.07.047,0.17,0.072,0.27a5.117,5.117,0,0,0,4.143,4.05,14.557,14.557,0,0,0,3.785.23,15.8,15.8,0,0,0,4.039-.72c0.785-.26,1.544-0.59,2.276-0.87C1000.22,5940.27,999.821,5939.41,999.41,5938.55Zm-46.755-9.3h10.228a2.634,2.634,0,0,1,.281,0,0.324,0.324,0,0,1,.259.49,1.652,1.652,0,0,1-.188.28,8.067,8.067,0,0,1-2.643,2.11c-1.392.77-2.814,1.49-4.215,2.25a13.372,13.372,0,0,0-3.542,2.53,3.242,3.242,0,0,0-.253,4.23,3.546,3.546,0,0,0,2.991,1.34q4.866-.015,9.731-0.01h0.327v-2.58H955.614a2.912,2.912,0,0,1-.588-0.06,0.6,0.6,0,0,1-.521-0.47,0.748,0.748,0,0,1,.358-0.8c0.931-.65,1.849-1.32,2.827-1.89,1.529-.89,3.117-1.68,4.652-2.56a9.616,9.616,0,0,0,2.824-2.34,3.437,3.437,0,0,0,.87-1.8,2.968,2.968,0,0,0-3-3.34H952.655v2.62Zm-33.26-2.62c0.02,0.11.025,0.16,0.04,0.21,0.739,2.43,1.414,4.89,2.237,7.29,0.776,2.27,1.663,4.51,2.587,6.72a2.778,2.778,0,0,0,3.717,1.39,3.238,3.238,0,0,0,1.637-1.88,99.117,99.117,0,0,0,3.936-11.23c0.238-.81.461-1.63,0.7-2.48-0.129-.01-0.22-0.02-0.31-0.02-0.855,0-1.711.01-2.566,0a0.321,0.321,0,0,0-.384.32c-0.116.55-.249,1.09-0.385,1.64a88.546,88.546,0,0,1-3.244,10.34,0.547,0.547,0,0,1-1.092-.01c-0.925-2.39-1.742-4.83-2.425-7.3-0.431-1.57-.808-3.14-1.22-4.71a0.438,0.438,0,0,0-.217-0.27C921.417,5926.63,920.427,5926.63,919.4,5926.63Zm55.482,2.48a5.451,5.451,0,1,1-5.459,5.21A5.47,5.47,0,0,1,974.877,5929.11Zm-32.166,0a5.452,5.452,0,1,1-5.442,5.45A5.423,5.423,0,0,1,942.711,5929.11Zm46.022,3.88c0.049-1.07.059-2.14,0.155-3.21s0.269-2.16.438-3.23a4.969,4.969,0,0,1,.329-1.14,0.66,0.66,0,0,1,.419-0.34,0.357,0.357,0,0,1,.344.41,10.739,10.739,0,0,1-.029,1.33,21.21,21.21,0,0,1-.82,4.25c-0.206.66-.468,1.3-0.7,1.95C988.821,5933,988.777,5933,988.733,5932.99Z" transform="translate(-901.875 -5897.47)"/>
</svg>
