<svg xmlns="http://www.w3.org/2000/svg" width="134.406" height="34.719" viewBox="0 0 134.406 34.719">
  <defs>
    <style>
      .cls-1 {
        fill-rule: evenodd;
      }
    </style>
  </defs>
  <path id="形状_13" data-name="形状 13" class="cls-1" d="M218.075,58.532a1.48,1.48,0,0,0,1.536.692h16.846V63.5H219.611a5.7,5.7,0,0,1-5.435-3.4,5.536,5.536,0,0,1,1.346-6.069c2.177-2.205,5.394-3.849,8.5-5.439,3.554-1.816,7.227-3.693,8.756-6.131a0.605,0.605,0,0,0,.031-0.578,0.582,0.582,0,0,0-.551-0.306H214.957V37.3h17.305a4.865,4.865,0,0,1,4.136,7.429c-2.156,3.439-6.362,5.588-10.432,7.667a40.474,40.474,0,0,0-7.394,4.623,1.339,1.339,0,0,0-.5,1.51m74.311-1.587a20.742,20.742,0,0,1-9.817,2.369c-2.531,0-4.276-.429-5.489-1.354-1.321-1-2.057-2.6-2.318-5l-0.011-.1,0.061-.078c3.955-5.016,6.312-10.607,6.466-15.339a11.676,11.676,0,0,0-1.009-5.533,4.414,4.414,0,0,0-2.6-2.453,3.589,3.589,0,0,0-2.912.411,8.154,8.154,0,0,0-3.154,5.124c-0.742,3.454-1.406,7.861-1.244,16.638l0,0.078-0.045.064a15.041,15.041,0,0,1-4.057,3.884l1.612,2.673a8.438,8.438,0,0,0,2.487-1.729l0.31-.332,0.1,0.442c1.486,6.5,6.881,7.338,11.415,7.338A26.426,26.426,0,0,0,294.4,61.238a15.428,15.428,0,0,1-2.018-4.294M274.67,46.974c0.039-5.173.52-9.116,1.428-11.718a0.787,0.787,0,0,1,.794-0.615,0.762,0.762,0,0,1,.551.886,32.305,32.305,0,0,1-2.313,11.548l-0.469,1.056ZM198.558,36.761A13.638,13.638,0,1,0,212.176,50.4a13.644,13.644,0,0,0-13.618-13.639m0,22.682a9.043,9.043,0,1,1,9.03-9.043,9.048,9.048,0,0,1-9.03,9.043M251.7,36.761A13.638,13.638,0,1,0,265.315,50.4,13.644,13.644,0,0,0,251.7,36.761m0,22.682a9.043,9.043,0,1,1,9.031-9.043,9.047,9.047,0,0,1-9.031,9.043M179.3,37.3a144.737,144.737,0,0,1-6.255,20.652,0.843,0.843,0,0,1-1.569,0A144.6,144.6,0,0,1,165.22,37.3H160a175.667,175.667,0,0,0,7.969,23.4,4.693,4.693,0,0,0,8.581,0,175.909,175.909,0,0,0,7.97-23.4H179.3Z" transform="translate(-160 -29.313)"/>
</svg>
