<svg xmlns="http://www.w3.org/2000/svg" width="1920" height="432.62" viewBox="0 0 1920 432.62">
  <defs>
    <style>
      .cls-1 {
        fill: #d1d0c1;
        fill-rule: evenodd;
        opacity: 0.06;
      }
    </style>
  </defs>
  <path id="形状_11" data-name="形状 11" class="cls-1" d="M1080.88,6282.9c-5.95,2.89-12.06,5.93-18.27,8.88-44.31,20.96-91.386,38.38-144.674,47.74-36.564,6.42-73.541,8.35-110.744,2.73-48.114-7.26-83.919-25.46-108.629-53.18-1.806-2.02-3.562-4.07-5.685-6.49-4.163,2.05-7.9,3.91-11.666,5.74-44.78,21.8-92.4,40.11-146.555,50.23-40.726,7.62-81.913,10.26-123.108,1.98-57.025-11.47-94.914-36.84-118.635-71.79-5.768-8.5-9.806-17.5-14.866-26.68-95.529,29.68-196.413,45.54-303.337,45.69v-55.63c6.172-.17,12.218-0.38,18.267-0.51,97.01-2.09,187.854-18.92,273.388-48.52,3.868-1.34,6.022-2.72,6.483-5.93,8.963-62.49,30-123.22,63.625-182.05,10.455-18.29,23.209-35.81,43.435-50.57a149.69,149.69,0,0,1,72.23-28.5c44.7-5.36,86.166,7.41,109.333,33.4,16.424,18.43,21.724,38.55,20.041,59.57-2.953,36.88-25.121,69.25-56.223,99.34-42.108,40.73-96.871,73.07-158.943,100.37-6.359,2.8-8.392,5.3-7.066,10.35,4.163,15.87,11.315,30.89,26.09,43.97,23.7,20.99,55.9,29.07,95.038,25.77,38.653-3.26,73.2-13.74,106.275-26.54a564.132,564.132,0,0,0,76.934-36.85c1.885-1.09,3.6-3.22,3.422-4.77-5.864-52.36,8.962-103.18,26.969-153.72,11.075-31.09,25.105-61.61,45.3-90.79,13.134-18.97,31.046-35.65,57.391-47.82,34.863-16.1,72.57-20.42,112.181-8.61,35.825,10.67,54.1,30.54,61.35,54.98,7.655,25.8.374,50.83-11.608,75.38-19.251,39.44-50.9,74.69-87.449,108.2a795.377,795.377,0,0,1-104.252,80.59c-5.141,3.34-5.39,5.95-2.943,9.98,13.39,22.07,36.026,36.93,73.386,40.09,23.229,1.97,45.812-.77,67.878-5.46,45.854-9.75,85.91-26.25,123.62-45.42q12.12-6.165,23.64-12.8c1.72-1,3.31-2.98,3.11-4.39-3.94-26.95-.34-53.71,5.35-80.35a510.432,510.432,0,0,1,48.88-134.84c9.06-16.95,18.83-33.75,34.21-48.83,19.45-19.05,44.17-34.01,78.55-40.67,58.52-11.35,115.29,9.95,132.97,49.66,9.81,22.04,6.99,44.1-.76,66.03-12.67,35.86-37.52,68.27-67.23,99.23-37.85,39.43-82.72,75.25-132.8,108.29-4.58,3.02-4.7,5.36-2.61,8.86,13.23,22.24,35.74,37.4,73.43,40.66,23.23,2.02,45.82-.69,67.89-5.37,45.19-9.56,84.79-25.72,122.04-44.55,8.81-4.45,17.35-9.14,25.77-13.91,1.62-.91,3.17-2.73,2.98-4.03-4.69-33.72,1.37-66.99,9.84-100.14,11.05-43.23,26.97-85.67,50.67-126.76,12.01-20.84,26.76-40.65,51.77-56.43a154.148,154.148,0,0,1,79.78-24.33c50.79-1.44,91.83,18.45,107.29,51.44,10.02,21.38,7.77,42.86.64,64.27-12.38,37.19-38,70.67-68.76,102.61-37.81,39.27-82.54,74.97-132.5,107.89-4,2.64-4.66,4.76-2.68,8.13,13.29,22.59,35.93,38.17,74.27,41.19,23.69,1.86,47.26-.03,70.43-3.69,49.38-7.8,91.18-24.81,129.86-45.56,33.34-17.89,63.12-38.12,91.51-59.25,3-2.23,5.98-4.47,9.52-7.12,21.7,12.09,43.22,24.08,65.36,36.41-10.98,7.99-21.41,15.82-32.23,23.41-42.62,29.9-88.42,57.39-142.32,78.61-56.56,22.28-117.4,34.89-183.99,33.6-66.08-1.29-116.02-20.55-148.85-58.21-1.01-1.15-1.98-2.33-3.01-3.48a8.126,8.126,0,0,0-1.38-.83c-1.88.92-3.84,1.88-5.79,2.84-44.98,22.37-92.89,41.24-147.42,52.06-37.97,7.53-76.56,10.39-115.9,5.16-50.57-6.72-87.91-25.29-113.66-54.18-1.6-1.79-3.17-3.59-4.77-5.38A4.687,4.687,0,0,0,1080.88,6282.9ZM754.269,6163.62c0.424,0.11.849,0.21,1.274,0.32,0.88-.6,1.816-1.17,2.63-1.81,29.576-23.19,57.053-47.35,80.133-73.54,21.394-24.27,39.395-49.46,46.769-77.32,2.832-10.7,4.513-21.54-1.689-32.06-5.817-9.87-16.634-12.47-31.011-7.56-11.662,3.99-20.425,10.14-26.464,17.52a207.238,207.238,0,0,0-19.334,27.4c-23.227,40.4-37.844,82.25-47.882,124.81C756.954,6148.77,755.731,6156.21,754.269,6163.62Zm388.441,1.28c2.74-1.95,4.21-2.85,5.43-3.88,14.6-12.33,29.73-24.41,43.63-37.07,30.44-27.72,56.83-56.92,73.04-89.59,7.59-15.31,13.36-30.91,10.2-47.19-1.36-6.97-3.91-14.25-15.48-17.09-11.28-2.77-20.26,1.53-28.38,5.98-11.94,6.54-19.68,15.08-25.93,24.25-15.54,22.84-26.64,46.64-36.12,70.78C1157.12,6101.57,1148.03,6132.39,1142.71,6164.9Zm388.62-1.48c0.5,0.12,1,.25,1.5.37,1-.71,2.07-1.4,3.01-2.14,29.87-23.42,57.56-47.85,80.7-74.36,21.12-24.2,38.85-49.31,45.84-77.09,2.59-10.3,4.05-20.66-1.79-30.76-5.81-10.06-16.85-12.75-31.43-7.69-11.61,4.04-20.31,10.2-26.35,17.6a204.437,204.437,0,0,0-18.81,26.58c-23.17,40.1-37.77,81.65-47.89,123.91C1534.23,6147.67,1532.91,6155.56,1531.33,6163.42ZM365.853,6137.95c0.529,0.14,1.058.29,1.587,0.43a43.673,43.673,0,0,0,4.78-2.34c19.449-12.68,39.872-24.8,58.009-38.23,26.018-19.27,46.682-40.9,58.407-65.7,7.192-15.22,10.859-30.69,3.95-46.4-7.341-16.69-24.278-19.92-42.865-7.45a93.69,93.69,0,0,0-22.98,21.78c-18.769,25.47-30.7,52.57-41.02,79.93C378.467,6099.19,372.432,6118.61,365.853,6137.95Z" transform="translate(0 -5913)"/>
</svg>
