<svg xmlns="http://www.w3.org/2000/svg" enable-background="new 0 0 512 512" viewBox="0 0 512 512" id="phone-call">
  <path fill-rule="evenodd" d="M162.159,185.12c28.569,56.929,107.792,136.152,164.721,164.721l39.679-37.87
	c11.776-11.239,30.416-11.021,41.926,0.489l59.814,59.814c6.137,6.137,9.107,13.731,8.763,22.404
	c-0.344,8.672-3.908,16.007-10.512,21.638l-71.261,60.761C264.802,479.002,32.94,251.174,34.923,116.711l60.761-71.261
	c5.631-6.604,12.966-10.167,21.638-10.512c8.673-0.344,16.267,2.626,22.403,8.763l59.814,59.815
	c11.511,11.51,11.728,30.15,0.489,41.926L162.159,185.12L162.159,185.12z M292.877,91.243c32.311,0,61.562,13.095,82.735,34.268
	c21.173,21.172,34.268,50.423,34.268,82.733c0,6.627,5.373,12,12,12c6.627,0,12-5.373,12-12c0-38.935-15.783-74.186-41.3-99.702
	c-25.517-25.517-60.768-41.299-99.704-41.299c-6.627,0-12,5.373-12,12C280.877,85.87,286.25,91.243,292.877,91.243L292.877,91.243z
	 M292.877,153.943c14.996,0,28.572,6.078,38.398,15.904c9.826,9.826,15.904,23.402,15.904,38.398c0,6.627,5.373,12,12,12
	c6.627,0,12-5.373,12-12c0-21.621-8.765-41.197-22.935-55.367c-14.17-14.17-33.746-22.935-55.367-22.935c-6.627,0-12,5.373-12,12
	C280.877,148.57,286.25,153.943,292.877,153.943z" clip-rule="evenodd"></path>
</svg>
